. 
 
http://www.torrenting.com          :     Once & For all ;)


               www . Torrenting . Com 

(((((((((((((= Enjoy No RAR releases =))))))))))))))))))))


...................................NFO:....................................

.                                                                                                     
       
     
     
       
       
     
     
                                         
                                         
                EXVID                    
                                         
         
                                         
         Filled the Archives             
                                         
         
                                         
                With:                    
                                         
         
                                         
                                    
     E240                           
                                    
     SP               (C) 2009      
                                         
     
     
     
                                                                                  
                                                                                   
                  The.Stunt.Man.1980.iNTERNAL.DVDRip.XviD-EXViDiNT                  
                                                                                   
                                                                                  
     
                                                                                               
EXViD aims to iNTERNAL those releases which have been lost in the archives.
EXViD aims to PRE non-internal releases which have poor sources and are likely skipped by others. 
http://www.imdb.com/title/tt0081568/
Subtitles: None
Date: 2012.01

Director: Richard Rush

Genres: Action | Comedy | Drama | Romance | Thriller

Plot:
While on the run from the police, Steve Railsback hides in a group of moviemakers where he
pretends to be a stunt man. Both aided and endangered by the director (Peter O'Toole) he avoids
both the police and sudden death as a stuntman. The mixture of real danger and fantasy of the
movie is an interesting twist for the viewer as the two blend in individual scenes.

Cast:
Peter O'Toole	...	Eli Cross
Steve Railsback	...	Cameron
Barbara Hershey	...	Nina Franklin
Allen Garfield	...	Sam (as Allen Goorwitz)
Alex Rocco	...	Police Chief Jake
Sharon Farrell	...	Denise
Adam Roarke	...	Raymond Bailey
Philip Bruns	...	Ace
Charles Bail	...	Chuck Barton
John Garwood	...	Gabe
Jim Hess	...	Henry
John Pearce	...	Garage Guard
Michael Railsback	...	Burt
George Wallace	...	Nina's Father
Dee Carroll	...	Nina's Mother

Stats:
Format                                   : AVI
Format/Info                              : Audio Video Interleave
Format profile                           : OpenDML
File size                                : 1.37 GiB
Duration                                 : 2h 10mn
Overall bit rate                         : 1 504 Kbps

Video
ID                                       : 0
Format                                   : MPEG-4 Visual
Format profile                           : Advanced Simple@L5
Format settings, BVOP                    : 2
Format settings, QPel                    : No
Format settings, GMC                     : No warppoints
Format settings, Matrix                  : Default (H.263)
Codec ID                                 : XVID
Codec ID/Hint                            : XviD
Duration                                 : 2h 10mn
Bit rate                                 : 1356 Kbps
Width                                    : 640 pixels
Height                                   : 352 pixels
Display aspect ratio                     : 16:9
Frame rate                               : 23.976 fps
Color space                              : YUV
Chroma subsampling                       : 4:2:0
Bit depth                                : 8 bits
Scan type                                : Progressive
Compression mode                         : Lossy
Bits/(Pixel*Frame)                       : 0.251
Stream size                              : 1268 MiB (91%)
Writing library                          : XviD 64

Audio
ID                                       : 1
Format                                   : MPEG Audio
Codec ID                                 : 55
Codec ID/Hint                            : MP3
Duration                                 : 2h 10mn
Bit rate mode                            : Variable
Bit rate                                 : 133 Kbps
Channel(s)                               : 2 channels
Sampling rate                            : 48.0 KHz
Compression mode                         : Lossy
Stream size                              : 124 MiB (9%)
Alignment                                : Aligned on interleaves



Release notes:
Enjoy!

Looking for:
75TB+ Archives
DUTCH/FLEMiSH Archives
                                                                                                    
Greets: CRBS EPiSODE FiCO FLS iLS KLASSiGER LiPSYNC MADE NODLABS RUNNER SPRiNTER      
   

                                                                    ASCII DONE BY XX^NFO 2oo9     
 

RLS-Crc: 415243414445:42EECD90